<?xml version="1.0" encoding="UTF-8" standalone="no"?>
<svg
   xmlns:dc="http://purl.org/dc/elements/1.1/"
   xmlns:cc="http://creativecommons.org/ns#"
   xmlns:rdf="http://www.w3.org/1999/02/22-rdf-syntax-ns#"
   xmlns:svg="http://www.w3.org/2000/svg"
   xmlns="http://www.w3.org/2000/svg"
   xmlns:sodipodi="http://sodipodi.sourceforge.net/DTD/sodipodi-0.dtd"
   xmlns:inkscape="http://www.inkscape.org/namespaces/inkscape"
   id="svg2"
   viewBox="0 0 850.39369 690.95476"
   height="195mm"
   width="240mm"
   version="1.1"
   inkscape:version="0.91 r13725"
   sodipodi:docname="bebeLucha2.svg"
   inkscape:export-filename="/var/www/html/FantasyGloves/public/images/bbLucha3.png"
   inkscape:export-xdpi="90"
   inkscape:export-ydpi="90">
  <defs
     id="defs4180" />
  <sodipodi:namedview
     pagecolor="#ffffff"
     bordercolor="#666666"
     borderopacity="1"
     objecttolerance="10"
     gridtolerance="10"
     guidetolerance="10"
     inkscape:pageopacity="0"
     inkscape:pageshadow="2"
     inkscape:window-width="1366"
     inkscape:window-height="719"
     id="namedview4178"
     showgrid="false"
     fit-margin-top="0"
     fit-margin-left="0"
     fit-margin-right="50"
     fit-margin-bottom="0"
     inkscape:zoom="0.80601116"
     inkscape:cx="442.90944"
     inkscape:cy="387.66274"
     inkscape:window-x="0"
     inkscape:window-y="25"
     inkscape:window-maximized="1"
     inkscape:current-layer="svg2" />
  <metadata
     id="metadata7">
    <rdf:RDF>
      <cc:Work
         rdf:about="">
        <dc:format>image/svg+xml</dc:format>
        <dc:type
           rdf:resource="http://purl.org/dc/dcmitype/StillImage" />
        <dc:title></dc:title>
      </cc:Work>
    </rdf:RDF>
  </metadata>
  <g
     id="layer1"
     transform="translate(-196.12394,-318.14518)">
    <g
       id="g4409"
       transform="translate(107.26,88.51)">
      <g
         id="g4280"
         transform="matrix(0.8956,0,0,0.83202,232.22,371.03)">
        <g
           id="g4228">
          <path
             id="path4230"
             d="m 349.71,198.44 c 12.29,3.5 21.33,14.81 21.33,28.21 0,13.39 -9.04,24.71 -21.33,28.2 l 0,-56.41 z"
             inkscape:connector-curvature="0"
             style="fill:#f9c5ee" />
          <path
             id="path4232"
             d="m 37.32,198.44 0,56.41 C 25.03,251.36 16,240.04 16,226.65 c 0,-13.4 9.03,-24.71 21.32,-28.21 z"
             inkscape:connector-curvature="0"
             style="fill:#f9c5ee" />
          <path
             id="path4234"
             d="m 333.71,175.33 0,83.43 c 0,35.13 -12.86,59.43 -39.32,74.29 -22.6,12.69 -55.6,18.86 -100.87,18.86 -45.28,0 -78.28,-6.17 -100.88,-18.86 C 66.18,318.19 53.32,293.89 53.32,258.76 l 0,-83.43 c 0,-63.31 42.19,-116.94 99.92,-134.29 43.98,0.56 67.41,32.31 67.41,55.3 0,17.6 -14.33,31.93 -31.94,31.93 -13.2,0 -23.94,-10.74 -23.94,-23.95 0,-9.68 7.87,-17.56 17.55,-17.56 4.42,0 8,-3.58 8,-8 0,-4.41 -3.58,-8 -8,-8 -18.5,0 -33.55,15.06 -33.55,33.56 0,22.03 17.92,39.95 39.94,39.95 26.43,0 47.94,-21.5 47.94,-47.93 0,-16.61 -8.35,-34.47 -22.32,-47.79 -5.59,-5.33 -11.95,-9.81 -18.89,-13.39 76.42,1.03 138.27,63.51 138.27,140.17 z m -44.11,57.84 c 0,-8.49 -6.89,-15.37 -15.37,-15.37 -8.49,0 -15.37,6.88 -15.37,15.37 0,8.49 6.88,15.37 15.37,15.37 8.48,0 15.37,-6.88 15.37,-15.37 z m -53.83,33.35 c 3.13,-3.13 3.13,-8.19 0,-11.32 -3.12,-3.12 -8.19,-3.12 -11.31,0 -17.06,17.06 -44.82,17.06 -61.88,0 -3.13,-3.12 -8.19,-3.12 -11.32,0 -3.12,3.13 -3.12,8.19 0,11.32 11.65,11.65 26.96,17.47 42.26,17.47 15.3,0 30.6,-5.82 42.25,-17.47 z M 128.18,233.17 c 0,-8.49 -6.89,-15.37 -15.37,-15.37 -8.49,0 -15.37,6.88 -15.37,15.37 0,8.49 6.88,15.37 15.37,15.37 8.48,0 15.37,-6.88 15.37,-15.37 z"
             inkscape:connector-curvature="0"
             style="fill:#fcd9eb" />
          <path
             id="path4236"
             d="m 349.71,182.05 c 21.19,3.79 37.33,22.34 37.33,44.6 0,22.45 -16.42,41.13 -37.87,44.7 -3.02,34.41 -18.77,59.83 -46.95,75.65 -25.05,14.07 -60.61,20.91 -108.7,20.91 -48.09,0 -83.65,-6.84 -108.71,-20.91 C 56.63,331.18 40.89,305.76 37.87,271.35 16.41,267.78 0,249.1 0,226.65 0,204.39 16.13,185.84 37.32,182.05 l 0,-6.72 c 0,-86.13 70.07,-156.2 156.2,-156.2 86.12,0 156.19,70.07 156.19,156.2 l 0,6.72 z m 21.33,44.6 c 0,-13.4 -9.04,-24.71 -21.33,-28.21 l 0,56.41 c 12.29,-3.49 21.33,-14.81 21.33,-28.2 z m -37.33,32.11 0,-83.43 c 0,-76.66 -61.85,-139.14 -138.27,-140.17 6.94,3.58 13.3,8.06 18.89,13.39 13.97,13.32 22.32,31.18 22.32,47.79 0,26.43 -21.51,47.93 -47.94,47.93 -22.02,0 -39.94,-17.92 -39.94,-39.95 0,-18.5 15.05,-33.56 33.55,-33.56 4.42,0 8,3.59 8,8 0,4.42 -3.58,8 -8,8 -9.68,0 -17.55,7.88 -17.55,17.56 0,13.21 10.74,23.95 23.94,23.95 17.61,0 31.94,-14.33 31.94,-31.93 0,-22.99 -23.43,-54.74 -67.41,-55.3 -57.73,17.35 -99.92,70.98 -99.92,134.29 l 0,83.43 c 0,35.13 12.86,59.43 39.32,74.29 22.6,12.69 55.6,18.86 100.88,18.86 45.27,0 78.27,-6.17 100.87,-18.86 26.46,-14.86 39.32,-39.16 39.32,-74.29 z m -296.39,-3.91 0,-56.41 C 25.03,201.94 16,213.25 16,226.65 c 0,13.39 9.03,24.71 21.32,28.2 z"
             inkscape:connector-curvature="0"
             style="fill:#333333" />
          <path
             id="path4238"
             d="m 274.23,217.8 c 8.48,0 15.37,6.88 15.37,15.37 0,8.49 -6.89,15.37 -15.37,15.37 -8.49,0 -15.37,-6.88 -15.37,-15.37 0,-8.49 6.88,-15.37 15.37,-15.37 z"
             inkscape:connector-curvature="0"
             style="fill:#0677cc" />
          <path
             id="path4240"
             d="m 235.77,255.2 c 3.13,3.13 3.13,8.19 0,11.32 -11.65,11.65 -26.95,17.47 -42.25,17.47 -15.3,0 -30.61,-5.82 -42.26,-17.47 -3.12,-3.13 -3.12,-8.19 0,-11.32 3.13,-3.12 8.19,-3.12 11.32,0 17.06,17.06 44.82,17.06 61.88,0 3.12,-3.12 8.19,-3.12 11.31,0 z"
             inkscape:connector-curvature="0"
             style="fill:#333333" />
          <path
             id="path4242"
             d="m 112.81,217.8 c 8.48,0 15.37,6.88 15.37,15.37 0,8.49 -6.89,15.37 -15.37,15.37 -8.49,0 -15.37,-6.88 -15.37,-15.37 0,-8.49 6.88,-15.37 15.37,-15.37 z"
             inkscape:connector-curvature="0"
             style="fill:#0677cc" />
        </g>
      </g>
      <g
         id="g4149"
         style="fill:#f44336;fill-rule:evenodd">
        <path
           id="path4309"
           d="m 264.29,515.22 c 74.611,37.764 210.01,37.2 281.43,-5 10.119,-20.695 2.4192,-17.258 -5,-27.857 -69.16,33.818 -206.24,55.191 -273.57,9.2857 -22.132,-22.132 -13.974,11.396 -2.8572,23.571 z"
           inkscape:connector-curvature="0" />
        <path
           id="path4311"
           d="m 264.29,483.08 c 2.39,-21.42 -16.9,-18.09 -29.29,-24.29 -12.633,-6.3167 -24.612,7.6632 -32.143,11.429 -31.688,15.844 -97.29,8.129 -110,-30 -3.141,-9.41 -5.495,-25.89 -2.86,-36.43 3.7683,-15.073 6.6522,-28.528 11.429,-42.857 3.1548,-9.4644 6.9994,-33.476 15.714,-39.286 7.1712,-4.7808 23.701,1.4286 37.143,1.4286 7.4247,0 16.251,2.4555 23.571,4.2857 1.405,0.35126 5.3098,-0.3098 4.2857,0.71429 -10.193,10.193 -38.341,3.8254 -45.714,18.571 -7.5908,15.182 5.6105,33.065 -0.71428,45.714 -4.1511,8.3023 -40.63,46.471 -17.857,57.857 15.619,7.8095 37.921,-3.9605 51.429,-10.714 6.0646,-3.0323 24.038,5.9475 29.286,8.5714 11.173,5.5865 30.765,-4.2857 41.429,-4.2857 35.285,0 33.262,44.672 24.286,39.286 z"
           inkscape:connector-curvature="0" />
        <path
           id="path4313"
           d="m 242.86,478.79 c -16.568,5.3524 -19.82,27.053 -34.286,34.286 -38.185,19.092 -87.245,40.409 -105,-12.857 -1.4233,-4.27 12.346,-27.959 13.571,-28.571 6.567,-3.2835 25.005,9.2857 28.571,9.2857 3.4194,0 -31.647,17.711 -10,32.143 14.752,9.8348 36.279,-12.143 49.286,-12.143 3.9326,0 80.913,-56.726 57.857,-22.143 z"
           inkscape:connector-curvature="0" />
        <path
           id="path4315"
           d="m 132.14,444.51 c 27.464,-24.087 33.302,-58.302 59.286,-84.286 48.082,-48.082 118.95,-30 180.71,-30 14.222,0 28.646,-2.8571 41.429,-2.8571 1.9708,0 5.4259,-4.787 7.8571,-3.5714 5.7506,2.8753 6.826,47.062 3.5714,53.571 -1.1433,2.2867 -31.934,-7.1429 -36.429,-7.1429 -12.414,0 -25.829,-3.2714 -36.429,-8.5714 -15.437,-7.7187 -88.467,-8.0416 -105,-1.4286 -14.911,5.9645 -29.652,10.898 -43.571,17.857 -19.175,9.5875 -20.29,37.578 -30,52.143 -6.7964,10.195 -20.69,10.345 -31.429,15.714 -7.3448,3.6724 -7.858,2.1414 -10,-1.4286 z"
           inkscape:connector-curvature="0" />
        <path
           id="path4317"
           d="m 248.38,489.36 c 7.3824,-14.012 -13.214,-5.8214 -17.5,2.75 -11.384,22.768 19.347,40.335 26.25,19.625 3.2652,-9.7955 -11.625,-1.8382 -11.625,-5.625 0,-4.2308 7.3732,-3.2554 2.875,-16.75 z"
           inkscape:connector-curvature="0" />
        <path
           id="path4319"
           d="m 241.55,480.86 c 1.8284,-0.92316 4.6616,-1.4598 5.6855,-3.4 13.302,-25.205 14.826,3.1661 13.722,3.8616 -4.1721,2.6275 -14.697,-1.7328 -19.407,-0.46157 z"
           inkscape:connector-curvature="0" />
        <path
           id="path4323"
           d="m 270.11,474.19 c 3.295,-4.5164 -4.062,-10.96 -0.97298,-15.956 0.75066,-1.2141 2.6537,-0.0605 3.6916,-0.62253 10.014,-5.4229 2.6108,13.89 -2.7186,16.579 z"
           inkscape:connector-curvature="0" />
      </g>
    </g>
    <path
       id="path4626"
       d="m 673.41,1009.1 c -30.831,0 -55.914,-21.733 -55.914,-48.447 l 0,-32.32 -37.301,0 c -30.831,0 -55.914,-21.733 -55.914,-48.447 0,-26.714 25.083,-48.447 55.914,-48.447 l 37.301,0 0,-32.319 c 0,-26.713 25.083,-48.447 55.914,-48.447 30.831,0 55.914,21.733 55.914,48.447 l 0,32.32 37.301,0 c 30.832,0 55.914,21.733 55.914,48.447 0,26.714 -25.083,48.447 -55.914,48.447 l -37.301,0 0,32.32 c 0,26.713 -25.083,48.446 -55.914,48.446 z"
       inkscape:connector-curvature="0"
       style="fill:#64dd17" />
    <g
       id="g4910"
       transform="translate(82.024,36.77)">
      <path
         id="path4802"
         d="m 604.01,457.78 c -5.176,7.5912 -7.676,17.018 -7.77,26.523 l -0.30745,31.067 -0.36125,36.504 c -0.0161,1.6303 0.13817,3.2453 0.49338,4.8244 1.8165,8.0135 9.2117,31.223 33.949,31.454 l 105.3,-9.4822 c 0,0 7.9286,-13.482 11.725,-37.709 l -20.848,-0.21942 c -12.134,-0.11304 -20.905,-12.435 -20.514,-25.946 0.39164,-13.573 11.568,-24.537 23.794,-24.424 l 18.063,0.16827 c -3.251,-25.188 -10.977,-37.921 -10.977,-37.921 l -105.11,-9.3833 c -13.701,-0.12763 -22.224,6.8987 -27.434,14.544 z"
         inkscape:connector-curvature="0"
         style="fill:#e64c3c" />
      <g
         id="g4804"
         transform="matrix(0.04158,-4.2017,3.7837,0.035247,594.65,644.36)"
         style="fill:#38454f">
        <path
           id="path4806"
           d="m 36.943,40 0,13 c 5.311,-0.893 8,-3 8,-3 l 0,-12.431 c -1.333,0.683 -3.999,1.813 -8,2.431 z"
           inkscape:connector-curvature="0" />
        <path
           id="path4808"
           d="m 16.943,50 c 0,0 3.197,1.986 8,3 l 0,-13 c -3.902,-0.635 -6.634,-1.78 -8,-2.457 l 0,12.457 z"
           inkscape:connector-curvature="0" />
      </g>
      <path
         id="path4810"
         d="m 656.98,464.49 c -0.0229,2.3193 -1.7329,4.1859 -3.8253,4.1664 -18.778,-0.17493 -34.221,16.649 -34.427,37.498 -0.023,2.3193 -1.7329,4.1859 -3.8253,4.1664 -2.0924,-0.0195 -3.7651,-1.9176 -3.7421,-4.2369 0.25218,-25.483 19.13,-46.045 42.078,-45.831 2.0924,0.0195 3.7651,1.9176 3.7421,4.2369 z"
         inkscape:connector-curvature="0"
         style="fill:#ed7161" />
      <path
         id="path4812"
         d="m 658.09,619.97 28.957,0.26974 c 2.9021,0.027 5.7137,-1.1276 7.9068,-3.2502 l 40.358,-38.321 -90.932,8.1916 c -0.65175,9.6503 -1.1862,33.828 13.711,33.11 z"
         inkscape:connector-curvature="0"
         style="fill:#c03a2b" />
      <path
         id="path4814"
         d="m 726.19,540.74 c -11.964,-0.11145 -20.655,-12.093 -20.523,-25.378 0.13148,-13.286 9.493,-25.124 21.457,-25.013 l 69.601,0.64837 c 4.1441,20.973 4.2291,30.736 -0.49896,50.42 l -70.036,-0.67762 z"
         inkscape:connector-curvature="0"
         style="fill:#e6e7e8" />
    </g>
    <g
       id="g4167"
       style="fill:#ccff90;stroke:#000000;stroke-width:0.5;stroke-linecap:round">
      <path
         id="path4923"
         d="m 743.88,731.34 c -3.0365,4.2511 -18.618,-4.52 -23.573,-2.8656 -4.9553,1.6544 -12.142,18.027 -17.123,16.453 -4.9814,-1.5742 -1.4544,-19.103 -4.5591,-23.305 -3.1047,-4.2016 -20.897,-5.977 -20.939,-11.201 -0.0421,-5.224 17.719,-7.2864 20.755,-11.537 3.0365,-4.2511 -0.7729,-21.721 4.1824,-23.375 4.9553,-1.6544 12.405,14.6 17.386,16.174 4.9814,1.5742 20.419,-7.4472 23.524,-3.2456 3.1047,4.2016 -10.052,16.31 -10.01,21.534 0.0422,5.224 13.392,17.118 10.356,21.369 z"
         inkscape:connector-curvature="0" />
      <path
         id="path4925"
         d="m 683.07,455.56 c 0.80974,4.8584 -15.425,9.3984 -17.626,13.805 -2.2006,4.4065 3.9233,20.112 -0.44712,22.384 -4.3704,2.2714 -13.705,-11.766 -18.576,-12.497 -4.8708,-0.73123 -17.916,9.9463 -21.426,6.4918 -3.5108,-3.4546 6.9549,-16.67 6.1451,-21.528 -0.80974,-4.8584 -14.996,-13.965 -12.795,-18.372 2.2006,-4.4065 18.003,1.4632 22.374,-0.80828 4.3704,-2.2714 8.6478,-18.577 13.519,-17.846 4.8708,0.73123 4.1718,17.574 7.6826,21.029 3.5108,3.4546 20.34,2.4838 21.15,7.3422 z"
         inkscape:connector-curvature="0" />
      <path
         id="path4927"
         d="m 876.81,773.76 c -5.6682,7.2876 -32.548,-9.323 -41.418,-6.7589 -8.8692,2.5642 -22.739,30.956 -31.421,27.817 -8.6825,-3.1387 -1.1913,-33.836 -6.3707,-41.479 -5.1794,-7.6427 -36.468,-12.06 -36.166,-21.288 0.30207,-9.2275 31.812,-11.589 37.48,-18.877 5.6682,-7.2876 0.2007,-38.41 9.0699,-40.974 8.8692,-2.5642 20.852,26.674 29.535,29.813 8.6825,3.1387 36.592,-11.678 41.771,-4.0356 5.1794,7.6427 -18.925,28.074 -19.227,37.302 -0.30207,9.2275 22.414,31.192 16.746,38.48 z"
         inkscape:connector-curvature="0" />
      <path
         id="path4929"
         d="m 828.73,382.02 c 2.4292,9.1095 -27.676,20.722 -31.066,29.519 -3.3892,8.7976 11.145,37.607 3.2316,42.732 -7.913,5.1253 -28.26,-19.918 -37.674,-20.423 -9.4143,-0.50469 -32.322,22.22 -39.642,16.278 -7.3197,-5.9419 10.211,-33.032 7.7815,-42.142 -2.4292,-9.1095 -31.121,-23.874 -27.732,-32.671 3.3892,-8.7976 34.571,-0.49649 42.484,-5.6218 7.913,-5.12531 13.088,-36.975 22.503,-36.47 9.4143,0.50468 11.155,32.725 18.475,38.667 7.3197,5.9419 39.21,1.0219 41.639,10.131 z"
         inkscape:connector-curvature="0" />
    </g>
    <g
       id="g5109"
       transform="translate(-360.62,-98.995)">
      <g
         id="g5015"
         transform="matrix(0.26879,-0.22544,0.23792,0.28367,561.62,877.44)"
         style="fill:#f44336;fill-opacity:0.94054003">
        <path
           id="path5017"
           d="m 272,111.99 c 0,41.595 -26.877,77.11 -63.992,90.229 -9.919,3.84 -20.797,5.759 -31.996,5.759 -11.199,0 -22.077,-1.92 -31.996,-5.759 -37.115,-13.118 -63.992,-48.634 -63.992,-90.229 0,-52.793 43.195,-95.988 95.988,-95.988 52.793,0 95.988,43.195 95.988,95.988 z"
           inkscape:connector-curvature="0" />
        <path
           id="path5019"
           d="m 431.98,368.02 -127.98,0 0,-32.06 c 0,-17.678 14.318,-31.932 31.996,-31.932 l 63.992,0 c 17.678,0 31.996,14.27 31.996,31.932 l 0,32.06 z"
           inkscape:connector-curvature="0" />
      </g>
      <path
         id="path5021"
         d="m 770.08,872.69 -4.3001,3.6066 -3.8214,-4.5563 c -6.3113,-7.5161 -17.178,-8.7526 -24.304,-2.7763 l -17.2,14.426 c -7.1254,5.9762 -7.7996,16.893 -1.4969,24.416 l 3.8214,4.5563 -17.2,14.426 -33.175,-39.554 c 5.8432,-13.575 3.843,-30.326 -6.733,-42.962 -14.698,-17.489 -40.144,-20.413 -56.744,-6.5205 -16.57,13.929 -18.121,39.495 -3.4573,57.013 10.598,12.61 26.75,17.5 41.134,14.109 l 33.175,39.554 -21.501,18.033 c -7.1254,5.9762 -7.7996,16.893 -1.4969,24.416 l 15.225,18.152 c 6.3113,7.5161 17.209,8.7888 24.334,2.8126 l 111.8,-93.772 c 7.1254,-5.9762 7.773,-16.924 1.4665,-24.452 l -15.225,-18.152 c -6.3113,-7.5161 -17.178,-8.7526 -24.304,-2.7763 z m -42.523,27.903 c -2.0968,-2.5087 -1.8646,-6.1357 0.50912,-8.1266 l 17.2,-14.426 c 2.3737,-1.9909 5.9858,-1.5881 8.0911,0.91334 l 3.8214,4.5563 -25.801,21.64 -3.8214,-4.5563 z m -113.49,-13.041 c -5.2297,-6.2353 -7.5643,-13.91 -7.1148,-21.321 0.44944,-7.4116 3.676,-14.447 9.5843,-19.402 5.9083,-4.9554 13.398,-6.908 20.775,-6.0604 7.3767,0.84765 14.527,4.4826 19.757,10.718 8.2306,9.787 9.2533,23.277 3.5457,33.336 l -0.0824,0.14638 c -1.3977,2.6567 -3.4129,5.1273 -5.9328,7.2408 -2.5199,2.1135 -5.3039,3.6676 -8.1631,4.5818 l -0.15849,0.0556 c -10.899,3.8692 -24.005,0.51384 -32.21,-9.2948 z m 52.109,9.7277 30.796,36.718 -8.6002,7.2132 -30.796,-36.718 c 0.18653,0.22239 3.1861,-1.9919 4.6351,-3.2072 1.449,-1.2154 2.7327,-2.5935 3.9651,-4.006 z m 134.83,3.552 c 2.0968,2.5087 1.895,6.172 -0.47867,8.1629 l -111.8,93.772 c -2.3737,1.9909 -6.0162,1.5518 -8.1216,-0.9497 l -15.225,-18.152 c -2.0968,-2.5087 -1.8646,-6.1357 0.50913,-8.1266 l 25.801,-21.64 17.2,-14.426 25.801,-21.64 34.401,-28.853 8.6002,-7.2132 c 2.3737,-1.9909 5.9858,-1.5881 8.0911,0.91334 l 15.225,18.152 z"
         inkscape:connector-curvature="0"
         style="fill:#0677cc" />
    </g>
  </g>
</svg>
